<svg id="a01d4739-7c91-4ed8-bdbf-b77dc9c97c7f" data-name="Content" xmlns="http://www.w3.org/2000/svg" viewBox="0 0 240 240"><defs><style>.ae85f67c-267c-4380-b142-58069aeea2c2{fill:#757575;}</style></defs><title>Availiability</title><polygon class="ae85f67c-267c-4380-b142-58069aeea2c2" points="140.76 192.43 123.85 166.84 111.06 175.37 136.65 218.01 209.14 162.58 210.08 139.49 140.76 192.43"/><polygon class="ae85f67c-267c-4380-b142-58069aeea2c2" points="59.89 183.9 59.89 76.82 170.76 76.82 170.76 149.78 192.08 136.99 192.08 47.44 166.5 47.44 166.5 21.86 149.44 21.86 149.44 47.44 81.21 47.44 81.21 21.86 64.15 21.86 64.15 47.44 38.57 47.44 38.57 200.96 111.06 200.96 98.27 183.9 59.89 183.9"/><rect class="ae85f67c-267c-4380-b142-58069aeea2c2" x="81.21" y="107.14" width="17.06" height="17.06"/><rect class="ae85f67c-267c-4380-b142-58069aeea2c2" x="106.79" y="107.14" width="17.06" height="17.06"/><rect class="ae85f67c-267c-4380-b142-58069aeea2c2" x="132.38" y="107.14" width="17.06" height="17.06"/></svg>